<svg width="263" height="47" viewBox="0 0 263 47" fill="none" xmlns="http://www.w3.org/2000/svg">
<path d="M239.601 47.0002C236.058 47.0002 233.155 46.1891 230.892 44.5669C228.672 42.902 227.563 40.5968 227.563 37.6513C227.563 34.6204 228.502 32.2939 230.38 30.6717C232.301 29.0068 235.118 27.7902 238.832 27.0218L249.91 24.8447C249.91 22.6248 249.398 20.96 248.373 19.8501C247.392 18.6975 245.961 18.1212 244.083 18.1212C242.248 18.1212 240.817 18.548 239.793 19.4018C238.768 20.2129 238.107 21.4295 237.808 23.0517L228.139 22.6035C228.779 18.8469 230.465 16.0081 233.197 14.0871C235.972 12.1234 239.601 11.1415 244.083 11.1415C249.206 11.1415 253.048 12.3582 255.609 14.7914C258.213 17.2247 259.515 20.7892 259.515 25.485V37.2031C259.515 38.1849 259.665 38.8466 259.963 39.1881C260.305 39.4869 260.796 39.6363 261.436 39.6363H262.397V46.2318C262.098 46.3171 261.607 46.4025 260.924 46.4879C260.284 46.5733 259.643 46.616 259.003 46.616C257.637 46.616 256.356 46.3812 255.161 45.9116C254.008 45.442 253.069 44.6523 252.343 43.5424C251.618 42.3898 251.255 40.7676 251.255 38.6758L252.087 39.3162C251.66 40.853 250.892 42.1977 249.782 43.3503C248.715 44.5029 247.306 45.3993 245.556 46.0397C243.848 46.68 241.863 47.0002 239.601 47.0002ZM241.906 40.4047C243.485 40.4047 244.873 40.1059 246.068 39.5083C247.263 38.8679 248.203 37.9501 248.886 36.7548C249.569 35.5595 249.91 34.1508 249.91 32.5286V30.8638L242.098 32.5286C240.561 32.8275 239.387 33.3397 238.576 34.0654C237.808 34.7485 237.424 35.6449 237.424 36.7548C237.424 37.9074 237.808 38.8039 238.576 39.4442C239.345 40.0846 240.455 40.4047 241.906 40.4047Z" fill="#4F39F6"/>
<path d="M204.406 46.2323V11.9105H213.499L213.819 21.8997L213.115 21.7076C213.67 18.2498 214.652 15.7525 216.061 14.2157C217.469 12.6789 219.412 11.9105 221.888 11.9105H225.025V19.8506H221.888C220.095 19.8506 218.622 20.0854 217.469 20.555C216.317 21.0246 215.442 21.7716 214.844 22.7961C214.289 23.8207 214.011 25.2081 214.011 26.9583V46.2323H204.406Z" fill="#4F39F6"/>
<path d="M181.694 47.0002C178.193 47.0002 175.141 46.2744 172.537 44.823C169.976 43.3289 167.969 41.2372 166.518 38.5478C165.109 35.8584 164.405 32.6994 164.405 29.0708C164.405 25.4423 165.109 22.3047 166.518 19.658C167.969 16.9686 169.976 14.8768 172.537 13.3827C175.098 11.8886 178.129 11.1415 181.63 11.1415C185.045 11.1415 188.012 11.8886 190.53 13.3827C193.049 14.8768 194.991 17.0112 196.357 19.786C197.766 22.5608 198.47 25.8692 198.47 29.7112V31.6322H174.33C174.458 34.3643 175.184 36.392 176.507 37.7153C177.873 39.0387 179.666 39.7004 181.886 39.7004C183.508 39.7004 184.853 39.3589 185.92 38.6758C187.03 37.9928 187.82 36.9469 188.289 35.5382L197.958 36.1145C197.062 39.5296 195.162 42.1977 192.259 44.1187C189.356 46.0397 185.835 47.0002 181.694 47.0002ZM174.33 25.7411H188.609C188.481 23.2225 187.777 21.3442 186.496 20.1062C185.258 18.8682 183.636 18.2492 181.63 18.2492C179.623 18.2492 177.958 18.9109 176.635 20.2343C175.354 21.5149 174.586 23.3505 174.33 25.7411Z" fill="#4F39F6"/>
<path d="M152.838 46.2319C149.295 46.2319 146.691 45.4208 145.026 43.7986C143.361 42.1337 142.529 39.5084 142.529 35.9225V3.84184H152.134V34.7699C152.134 36.4348 152.475 37.566 153.158 38.1637C153.884 38.7613 154.951 39.0601 156.36 39.0601H161.162V46.2319H152.838ZM137.022 19.0818V11.91H161.162V19.0818H137.022Z" fill="#4F39F6"/>
<path d="M122.489 46.232V11.9102H132.094V46.232H122.489ZM122.297 7.68399V0H132.222V7.68399H122.297Z" fill="#4F39F6"/>
<path d="M102.253 47C99.8623 47 97.7706 46.4877 95.9777 45.4632C94.2274 44.4387 92.8614 43.0086 91.8795 41.173L91.6874 46.2316H82.5307V0.767977H92.1357V16.7763C93.0321 15.1968 94.3555 13.8735 96.1057 12.8062C97.856 11.6963 99.905 11.1414 102.253 11.1414C105.156 11.1414 107.674 11.8884 109.809 13.3825C111.943 14.834 113.587 16.9044 114.739 19.5938C115.935 22.2832 116.532 25.4421 116.532 29.0707C116.532 32.6992 115.935 35.8582 114.739 38.5476C113.587 41.237 111.943 43.3288 109.809 44.8229C107.674 46.2743 105.156 47 102.253 47ZM99.5635 39.6362C101.698 39.6362 103.406 38.7184 104.686 36.8827C106.01 35.0044 106.671 32.4004 106.671 29.0707C106.671 25.741 106.031 23.1583 104.75 21.3227C103.47 19.4443 101.762 18.5052 99.6275 18.5052C98.0481 18.5052 96.682 18.9321 95.5294 19.7859C94.4195 20.5969 93.5657 21.7922 92.9681 23.3717C92.4131 24.9512 92.1357 26.8509 92.1357 29.0707C92.1357 31.2478 92.4131 33.1261 92.9681 34.7056C93.5657 36.2851 94.4195 37.5017 95.5294 38.3555C96.682 39.2093 98.0267 39.6362 99.5635 39.6362Z" fill="#4F39F6"/>
<path d="M55.1925 47.0002C51.6493 47.0002 48.7465 46.1891 46.484 44.5669C44.2642 42.902 43.1543 40.5968 43.1543 37.6513C43.1543 34.6204 44.0934 32.2939 45.9717 30.6717C47.8927 29.0068 50.7102 27.7902 54.4241 27.0218L65.5019 24.8447C65.5019 22.6248 64.9896 20.96 63.9651 19.8501C62.9832 18.6975 61.5531 18.1212 59.6748 18.1212C57.8392 18.1212 56.4091 18.548 55.3846 19.4018C54.3601 20.2129 53.6984 21.4295 53.3996 23.0517L43.7306 22.6035C44.3709 18.8469 46.0571 16.0081 48.7892 14.0871C51.564 12.1234 55.1925 11.1415 59.6748 11.1415C64.7975 11.1415 68.6395 12.3582 71.2008 14.7914C73.8048 17.2247 75.1069 20.7892 75.1069 25.485V37.2031C75.1069 38.1849 75.2563 38.8466 75.5551 39.1881C75.8966 39.4869 76.3875 39.6363 77.0278 39.6363H77.9884V46.2318C77.6895 46.3171 77.1986 46.4025 76.5156 46.4879C75.8753 46.5733 75.2349 46.616 74.5946 46.616C73.2285 46.616 71.9479 46.3812 70.7526 45.9116C69.6 45.442 68.6608 44.6523 67.9351 43.5424C67.2094 42.3898 66.8466 40.7676 66.8466 38.6758L67.679 39.3162C67.2521 40.853 66.4837 42.1977 65.3738 43.3503C64.3066 44.5029 62.8978 45.3993 61.1476 46.0397C59.44 46.68 57.455 47.0002 55.1925 47.0002ZM57.4977 40.4047C59.0772 40.4047 60.4646 40.1059 61.6599 39.5083C62.8552 38.8679 63.7943 37.9501 64.4773 36.7548C65.1604 35.5595 65.5019 34.1508 65.5019 32.5286V30.8638L57.6898 32.5286C56.153 32.8275 54.9791 33.3397 54.168 34.0654C53.3996 34.7485 53.0154 35.6449 53.0154 36.7548C53.0154 37.9074 53.3996 38.8039 54.168 39.4442C54.9364 40.0846 56.0463 40.4047 57.4977 40.4047Z" fill="#4F39F6"/>
<path d="M0 46.2316V0.767977H9.73306V22.3472L5.44283 19.2736H31.3123L26.958 22.3472V0.767977H36.6911V46.2316H26.958V24.3963L31.3123 27.4699H5.44283L9.73306 24.3963V46.2316H0Z" fill="#4F39F6"/>
</svg>
